<svg xmlns="http://www.w3.org/2000/svg" height="20" width="20"><path d="M11.625 7.792v-.667q.625-.333 1.375-.469.75-.135 1.5-.135.375 0 .74.021.364.02.843.104v.792q-.541-.084-.895-.094-.355-.011-.688-.011-.729 0-1.469.105-.739.104-1.406.354Zm0 4.875v-.709q.521-.312 1.281-.468.761-.157 1.594-.157.458 0 .823.032.365.031.76.114v.792q-.541-.083-.895-.094-.355-.01-.688-.01-.729 0-1.469.135-.739.136-1.406.365Zm0-2.417v-.708q.646-.334 1.406-.48.761-.145 1.469-.145.458 0 .823.031.365.031.76.114v.792q-.458-.083-.823-.094-.364-.01-.76-.01-.688 0-1.417.125-.729.125-1.458.375Zm-1.292 5.125q1.021-.563 2.073-.844t2.177-.281q.771 0 1.386.052.614.052 1.031.281.25.105.458-.031.209-.135.209-.427V5.542q0-.188-.105-.334-.104-.146-.354-.25-.729-.229-1.291-.323-.563-.093-1.334-.093-1.145 0-2.229.312-1.083.313-2.021.938Zm-.333.792q-1.042-.584-2.188-.938-1.145-.354-2.395-.354-.584 0-1.157.031-.572.032-1.114.177-.542.146-.99-.187-.448-.334-.448-.917V5.5q0-.396.219-.719.219-.323.573-.448.688-.271 1.427-.343.74-.073 1.49-.073 1.25 0 2.416.343Q9 4.604 10 5.208q1.021-.583 2.177-.937 1.156-.354 2.406-.354.75 0 1.49.073.739.072 1.427.343.354.125.583.448.229.323.229.719v8.479q0 .563-.364.906-.365.344-.802.24-.625-.187-1.261-.219-.635-.031-1.302-.031-1.25 0-2.395.354-1.146.354-2.188.938Z"/></svg>